<svg width="12" height="12" viewBox="0 0 12 12" fill="none" xmlns="http://www.w3.org/2000/svg">
<path d="M11.5892 1.58925C11.9147 1.26382 11.9147 0.736179 11.5892 0.410742C11.2638 0.0853049 10.7362 0.0853049 10.4107 0.410742L5.99999 4.82149L1.58925 0.410742C1.26381 0.0853049 0.736171 0.0853049 0.410734 0.410742C0.0852972 0.736179 0.0852972 1.26382 0.410734 1.58925L4.82148 6L0.410734 10.4107C0.0852972 10.7362 0.0852972 11.2638 0.410734 11.5893C0.736171 11.9147 1.26381 11.9147 1.58925 11.5893L5.99999 7.17851L10.4107 11.5893C10.7362 11.9147 11.2638 11.9147 11.5892 11.5893C11.9147 11.2638 11.9147 10.7362 11.5892 10.4107L7.1785 6L11.5892 1.58925Z" fill="#3A3A3A"/>
</svg>
