<svg width="20" height="20" viewBox="0 0 20 20" fill="none" xmlns="http://www.w3.org/2000/svg">
<path d="M9.16668 14.1667C9.16668 13.7065 9.53977 13.3334 10 13.3334H10.0083C10.4686 13.3334 10.8417 13.7065 10.8417 14.1667C10.8417 14.6269 10.4686 15 10.0083 15H10C9.53977 15 9.16668 14.6269 9.16668 14.1667Z" fill="#3A3A3A"/>
<path d="M9.08888 6.89277C9.42821 6.69334 9.82718 6.62044 10.2151 6.68698C10.603 6.75352 10.9549 6.95521 11.2084 7.25632C11.4619 7.55743 11.6006 7.93854 11.6 8.33214L11.6 8.33338C11.6 8.72432 11.2958 9.13189 10.7211 9.515C10.4591 9.68965 10.1912 9.8242 9.98552 9.91562C9.88386 9.9608 9.8003 9.99417 9.7441 10.0156C9.71608 10.0263 9.69506 10.0339 9.68225 10.0384L9.66895 10.0431C9.23289 10.189 8.99733 10.6606 9.14277 11.0969C9.28831 11.5335 9.76025 11.7695 10.1969 11.6239L10.2406 11.6088L10.1979 11.6236L10.1992 11.6232L10.2024 11.6221L10.2406 11.6088C10.2644 11.6003 10.2971 11.5884 10.3374 11.5731C10.418 11.5424 10.5297 11.4976 10.6624 11.4386C10.9255 11.3217 11.2826 11.1438 11.6456 10.9018C12.3208 10.4516 13.2663 9.60944 13.2667 8.33414C13.2677 7.54711 12.9903 6.78509 12.4834 6.18299C11.9765 5.58076 11.2727 5.17738 10.4969 5.0443C9.721 4.91122 8.92307 5.05702 8.2444 5.45588C7.56573 5.85474 7.05013 6.48092 6.7889 7.22351C6.63617 7.65767 6.86432 8.13343 7.29847 8.28616C7.73263 8.43888 8.2084 8.21074 8.36112 7.77658C8.49174 7.40529 8.74954 7.0922 9.08888 6.89277Z" fill="#3A3A3A"/>
<path fill-rule="evenodd" clip-rule="evenodd" d="M0.833344 10C0.833344 4.93743 4.9374 0.833374 10 0.833374C15.0626 0.833374 19.1667 4.93743 19.1667 10C19.1667 15.0626 15.0626 19.1667 10 19.1667C4.9374 19.1667 0.833344 15.0626 0.833344 10ZM10 2.50004C5.85787 2.50004 2.50001 5.8579 2.50001 10C2.50001 14.1422 5.85787 17.5 10 17.5C14.1421 17.5 17.5 14.1422 17.5 10C17.5 5.8579 14.1421 2.50004 10 2.50004Z" fill="#3A3A3A"/>
</svg>
