<svg width="52" height="50" viewBox="0 0 52 50" fill="none" xmlns="http://www.w3.org/2000/svg">
<path d="M46.8 25C46.8 19.6957 44.6086 14.6086 40.7078 10.8579C36.8071 7.10714 31.5165 5 26 5C20.4835 5 15.1929 7.10714 11.2922 10.8579C7.39142 14.6086 5.2 19.6957 5.2 25C5.2 30.3043 7.39142 35.3914 11.2922 39.1421C15.1929 42.8929 20.4835 45 26 45C31.5165 45 36.8071 42.8929 40.7078 39.1421C44.6086 35.3914 46.8 30.3043 46.8 25ZM52 25C52 31.6304 49.2607 37.9893 44.3848 42.6777C39.5088 47.3661 32.8956 50 26 50C22.5856 50 19.2047 49.3534 16.0502 48.097C12.8958 46.8406 10.0295 44.9991 7.61522 42.6777C2.73928 37.9893 0 31.6304 0 25C0 18.3696 2.73928 12.0107 7.61522 7.32233C12.4912 2.63392 19.1044 0 26 0C29.4144 0 32.7953 0.646644 35.9498 1.90301C39.1042 3.15938 41.9705 5.00087 44.3848 7.32233C46.7991 9.6438 48.7142 12.3998 50.0209 15.4329C51.3275 18.4661 52 21.717 52 25ZM35.1 15C37.18 15 39 16.75 39 18.75C39 20.75 37.18 22.5 35.1 22.5C33.02 22.5 31.2 20.75 31.2 18.75C31.2 16.75 33.02 15 35.1 15ZM20.8 18.75C20.8 20.75 18.98 22.5 16.9 22.5C14.82 22.5 13 20.75 13 18.75C13 16.75 14.82 15 16.9 15C18.98 15 20.8 16.75 20.8 18.75ZM26 30C30.55 30 34.554 31.8 36.894 34.525L33.202 38.075C32.032 36.25 29.25 35 26 35C22.75 35 19.968 36.25 18.798 38.075L15.106 34.525C17.446 31.8 21.45 30 26 30Z" fill="#686B6F"/>
</svg>
