<svg width="24" height="28" viewBox="0 0 24 28" fill="none" xmlns="http://www.w3.org/2000/svg">
<path d="M12 13.3C10.8634 13.3 9.77327 12.9313 8.96954 12.2749C8.16582 11.6185 7.71429 10.7283 7.71429 9.8C7.71429 8.87174 8.16582 7.9815 8.96954 7.32513C9.77327 6.66875 10.8634 6.3 12 6.3C13.1366 6.3 14.2267 6.66875 15.0305 7.32513C15.8342 7.9815 16.2857 8.87174 16.2857 9.8C16.2857 10.2596 16.1749 10.7148 15.9595 11.1394C15.7441 11.564 15.4284 11.9499 15.0305 12.2749C14.6325 12.5999 14.16 12.8577 13.6401 13.0336C13.1201 13.2095 12.5628 13.3 12 13.3ZM12 0C8.8174 0 5.76515 1.0325 3.51472 2.87035C1.26428 4.70821 0 7.20088 0 9.8C0 17.15 12 28 12 28C12 28 24 17.15 24 9.8C24 7.20088 22.7357 4.70821 20.4853 2.87035C18.2348 1.0325 15.1826 0 12 0Z" fill="#C4C4C4"/>
</svg>
