<svg width="21" height="27" viewBox="0 0 21 27" fill="none" xmlns="http://www.w3.org/2000/svg">
<path d="M19.25 0H1.75C1.28587 0 0.840752 0.17779 0.512563 0.494257C0.184374 0.810725 0 1.23995 0 1.6875V25.3125C0 25.7601 0.184374 26.1893 0.512563 26.5057C0.840752 26.8222 1.28587 27 1.75 27H19.25C19.7141 27 20.1592 26.8222 20.4874 26.5057C20.8156 26.1893 21 25.7601 21 25.3125V1.6875C21 1.23995 20.8156 0.810725 20.4874 0.494257C20.1592 0.17779 19.7141 0 19.25 0ZM6.125 20.25H4.375V18.5625H6.125V20.25ZM6.125 16.875H4.375V15.1875H6.125V16.875ZM6.125 13.5H4.375V11.8125H6.125V13.5ZM6.125 10.125H4.375V8.4375H6.125V10.125ZM6.125 6.75H4.375V5.0625H6.125V6.75ZM16.625 20.25H7.875V18.5625H16.625V20.25ZM16.625 16.875H7.875V15.1875H16.625V16.875ZM16.625 13.5H7.875V11.8125H16.625V13.5ZM16.625 10.125H7.875V8.4375H16.625V10.125ZM16.625 6.75H7.875V5.0625H16.625V6.75Z" fill="#C4C4C4"/>
</svg>
